<?xml version="1.0" encoding="UTF-8" standalone="no"?>
<!DOCTYPE svg PUBLIC "-//W3C//DTD SVG 1.1//EN"
 "http://www.w3.org/Graphics/SVG/1.1/DTD/svg11.dtd">
<!-- Generated by graphviz version 2.43.0 (0)
 -->
<!-- Title: classes Pages: 1 -->
<svg width="814pt" height="619pt"
 viewBox="0.00 0.00 814.00 619.00" xmlns="http://www.w3.org/2000/svg" xmlns:xlink="http://www.w3.org/1999/xlink">
<g id="graph0" class="graph" transform="scale(1 1) rotate(0) translate(4 615)">
<title>classes</title>
<polygon fill="white" stroke="transparent" points="-4,4 -4,-615 810,-615 810,4 -4,4"/>
<!-- monitor.controller.Controller -->
<g id="node1" class="node">
<title>monitor.controller.Controller</title>
<polygon fill="none" stroke="black" points="71.5,-451.5 71.5,-610.5 404.5,-610.5 404.5,-451.5 71.5,-451.5"/>
<text text-anchor="middle" x="238" y="-595.3" font-family="Times,serif" font-size="14.00">monitor.controller.Controller</text>
<polyline fill="none" stroke="black" points="71.5,-587.5 404.5,-587.5 "/>
<text text-anchor="start" x="79.5" y="-572.3" font-family="Times,serif" font-size="14.00">label</text>
<text text-anchor="start" x="79.5" y="-557.3" font-family="Times,serif" font-size="14.00">ui</text>
<polyline fill="none" stroke="black" points="71.5,-549.5 404.5,-549.5 "/>
<text text-anchor="start" x="79.5" y="-534.3" font-family="Times,serif" font-size="14.00">add_cam_view(name_cam)</text>
<text text-anchor="start" x="79.5" y="-519.3" font-family="Times,serif" font-size="14.00">on_comboBox_cam_setCurrentIndex(index)</text>
<text text-anchor="start" x="79.5" y="-504.3" font-family="Times,serif" font-size="14.00">on_pushButton_add_clicked()</text>
<text text-anchor="start" x="79.5" y="-489.3" font-family="Times,serif" font-size="14.00">on_pushButton_add_user_telegram_clicked()</text>
<text text-anchor="start" x="79.5" y="-474.3" font-family="Times,serif" font-size="14.00">on_pushButton_del_clicked()</text>
<text text-anchor="start" x="79.5" y="-459.3" font-family="Times,serif" font-size="14.00">restore_data()</text>
</g>
<!-- monitor.controller.MyLabel -->
<g id="node2" class="node">
<title>monitor.controller.MyLabel</title>
<polygon fill="none" stroke="black" points="0,-165 0,-235 210,-235 210,-165 0,-165"/>
<text text-anchor="middle" x="105" y="-219.8" font-family="Times,serif" font-size="14.00">monitor.controller.MyLabel</text>
<polyline fill="none" stroke="black" points="0,-212 210,-212 "/>
<polyline fill="none" stroke="black" points="0,-188 210,-188 "/>
<text text-anchor="start" x="8" y="-172.8" font-family="Times,serif" font-size="14.00">set_label(text)</text>
</g>
<!-- monitor.controller.MyLabel&#45;&gt;monitor.controller.Controller -->
<g id="edge1" class="edge">
<title>monitor.controller.MyLabel&#45;&gt;monitor.controller.Controller</title>
<path fill="none" stroke="black" d="M118.86,-235.28C138.26,-283.27 174.21,-372.21 201.57,-439.88"/>
<polygon fill="black" stroke="black" points="201.73,-440.27 207.68,-444.33 206.22,-451.4 200.27,-447.33 201.73,-440.27"/>
<text text-anchor="middle" x="216.5" y="-421.8" font-family="Times,serif" font-size="14.00" fill="green">label</text>
</g>
<!-- monitor.data_base.base.DataBase -->
<g id="node3" class="node">
<title>monitor.data_base.base.DataBase</title>
<polygon fill="none" stroke="black" points="534,-120.5 534,-279.5 806,-279.5 806,-120.5 534,-120.5"/>
<text text-anchor="middle" x="670" y="-264.3" font-family="Times,serif" font-size="14.00">monitor.data_base.base.DataBase</text>
<polyline fill="none" stroke="black" points="534,-256.5 806,-256.5 "/>
<text text-anchor="start" x="542" y="-241.3" font-family="Times,serif" font-size="14.00">current_data : dict</text>
<text text-anchor="start" x="542" y="-226.3" font-family="Times,serif" font-size="14.00">dir_base : str</text>
<text text-anchor="start" x="542" y="-211.3" font-family="Times,serif" font-size="14.00">log : RootLogger, Logger, NoneType</text>
<text text-anchor="start" x="542" y="-196.3" font-family="Times,serif" font-size="14.00">path_file_config</text>
<polyline fill="none" stroke="black" points="534,-188.5 806,-188.5 "/>
<text text-anchor="start" x="542" y="-173.3" font-family="Times,serif" font-size="14.00">get_rstp_link()</text>
<text text-anchor="start" x="542" y="-158.3" font-family="Times,serif" font-size="14.00">read_data()</text>
<text text-anchor="start" x="542" y="-143.3" font-family="Times,serif" font-size="14.00">set_rstp_link(rstp: str)</text>
<text text-anchor="start" x="542" y="-128.3" font-family="Times,serif" font-size="14.00">write_data()</text>
</g>
<!-- monitor.view.from_ui.Ui_MainWindow -->
<g id="node4" class="node">
<title>monitor.view.from_ui.Ui_MainWindow</title>
<polygon fill="none" stroke="black" points="228.5,-0.5 228.5,-399.5 515.5,-399.5 515.5,-0.5 228.5,-0.5"/>
<text text-anchor="middle" x="372" y="-384.3" font-family="Times,serif" font-size="14.00">monitor.view.from_ui.Ui_MainWindow</text>
<polyline fill="none" stroke="black" points="228.5,-376.5 515.5,-376.5 "/>
<text text-anchor="start" x="236.5" y="-361.3" font-family="Times,serif" font-size="14.00">centralwidget</text>
<text text-anchor="start" x="236.5" y="-346.3" font-family="Times,serif" font-size="14.00">comboBox_cam</text>
<text text-anchor="start" x="236.5" y="-331.3" font-family="Times,serif" font-size="14.00">comboBox_name_cliente</text>
<text text-anchor="start" x="236.5" y="-316.3" font-family="Times,serif" font-size="14.00">gridLayout</text>
<text text-anchor="start" x="236.5" y="-301.3" font-family="Times,serif" font-size="14.00">gridLayout_2</text>
<text text-anchor="start" x="236.5" y="-286.3" font-family="Times,serif" font-size="14.00">gridLayout_3</text>
<text text-anchor="start" x="236.5" y="-271.3" font-family="Times,serif" font-size="14.00">gridLayout_4</text>
<text text-anchor="start" x="236.5" y="-256.3" font-family="Times,serif" font-size="14.00">horizontalSpacer</text>
<text text-anchor="start" x="236.5" y="-241.3" font-family="Times,serif" font-size="14.00">label</text>
<text text-anchor="start" x="236.5" y="-226.3" font-family="Times,serif" font-size="14.00">label_2</text>
<text text-anchor="start" x="236.5" y="-211.3" font-family="Times,serif" font-size="14.00">label_3</text>
<text text-anchor="start" x="236.5" y="-196.3" font-family="Times,serif" font-size="14.00">label_4</text>
<text text-anchor="start" x="236.5" y="-181.3" font-family="Times,serif" font-size="14.00">label_5</text>
<text text-anchor="start" x="236.5" y="-166.3" font-family="Times,serif" font-size="14.00">lineEdit_rstp</text>
<text text-anchor="start" x="236.5" y="-151.3" font-family="Times,serif" font-size="14.00">menubar</text>
<text text-anchor="start" x="236.5" y="-136.3" font-family="Times,serif" font-size="14.00">pushButton_add</text>
<text text-anchor="start" x="236.5" y="-121.3" font-family="Times,serif" font-size="14.00">pushButton_add_user_telegram</text>
<text text-anchor="start" x="236.5" y="-106.3" font-family="Times,serif" font-size="14.00">pushButton_del</text>
<text text-anchor="start" x="236.5" y="-91.3" font-family="Times,serif" font-size="14.00">scrollArea</text>
<text text-anchor="start" x="236.5" y="-76.3" font-family="Times,serif" font-size="14.00">scrollAreaWidgetContents</text>
<text text-anchor="start" x="236.5" y="-61.3" font-family="Times,serif" font-size="14.00">statusbar</text>
<text text-anchor="start" x="236.5" y="-46.3" font-family="Times,serif" font-size="14.00">verticalLayout</text>
<polyline fill="none" stroke="black" points="228.5,-38.5 515.5,-38.5 "/>
<text text-anchor="start" x="236.5" y="-23.3" font-family="Times,serif" font-size="14.00">retranslateUi(MainWindow)</text>
<text text-anchor="start" x="236.5" y="-8.3" font-family="Times,serif" font-size="14.00">setupUi(MainWindow)</text>
</g>
<!-- monitor.view.from_ui.Ui_MainWindow&#45;&gt;monitor.controller.Controller -->
<g id="edge2" class="edge">
<title>monitor.view.from_ui.Ui_MainWindow&#45;&gt;monitor.controller.Controller</title>
<path fill="none" stroke="black" d="M290.96,-399.97C285.35,-413.75 279.87,-427.19 274.7,-439.89"/>
<polygon fill="black" stroke="black" points="274.57,-440.21 276.01,-447.27 270.05,-451.32 268.6,-444.25 274.57,-440.21"/>
<text text-anchor="middle" x="289" y="-421.8" font-family="Times,serif" font-size="14.00" fill="green">ui</text>
</g>
</g>
</svg>
