<?xml version="1.0" encoding="UTF-8" standalone="no"?>
<!DOCTYPE svg PUBLIC "-//W3C//DTD SVG 1.1//EN"
 "http://www.w3.org/Graphics/SVG/1.1/DTD/svg11.dtd">
<!-- Generated by graphviz version 2.43.0 (0)
 -->
<!-- Title: classes Pages: 1 -->
<svg width="1509pt" height="709pt"
 viewBox="0.00 0.00 1509.00 709.00" xmlns="http://www.w3.org/2000/svg" xmlns:xlink="http://www.w3.org/1999/xlink">
<g id="graph0" class="graph" transform="scale(1 1) rotate(0) translate(4 705)">
<title>classes</title>
<polygon fill="white" stroke="transparent" points="-4,4 -4,-705 1505,-705 1505,4 -4,4"/>
<!-- monitor.telegram.api.ApiTelegram -->
<g id="node1" class="node">
<title>monitor.telegram.api.ApiTelegram</title>
<polygon fill="none" stroke="black" points="0,-120.5 0,-324.5 274,-324.5 274,-120.5 0,-120.5"/>
<text text-anchor="middle" x="137" y="-309.3" font-family="Times,serif" font-size="14.00">ApiTelegram</text>
<polyline fill="none" stroke="black" points="0,-301.5 274,-301.5 "/>
<text text-anchor="start" x="8" y="-286.3" font-family="Times,serif" font-size="14.00">chat_id : str</text>
<text text-anchor="start" x="8" y="-271.3" font-family="Times,serif" font-size="14.00">first_name : str</text>
<text text-anchor="start" x="8" y="-256.3" font-family="Times,serif" font-size="14.00">log : NoneType, RootLogger, Logger</text>
<text text-anchor="start" x="8" y="-241.3" font-family="Times,serif" font-size="14.00">msg_bot : str</text>
<text text-anchor="start" x="8" y="-226.3" font-family="Times,serif" font-size="14.00">token_bot : str</text>
<polyline fill="none" stroke="black" points="0,-218.5 274,-218.5 "/>
<text text-anchor="start" x="8" y="-203.3" font-family="Times,serif" font-size="14.00">get_first_name()</text>
<text text-anchor="start" x="8" y="-188.3" font-family="Times,serif" font-size="14.00">get_id()</text>
<text text-anchor="start" x="8" y="-173.3" font-family="Times,serif" font-size="14.00">get_msg(): str</text>
<text text-anchor="start" x="8" y="-158.3" font-family="Times,serif" font-size="14.00">send_msg(msg)</text>
<text text-anchor="start" x="8" y="-143.3" font-family="Times,serif" font-size="14.00">set_id(chat_id)</text>
<text text-anchor="start" x="8" y="-128.3" font-family="Times,serif" font-size="14.00">update_id(): </text>
</g>
<!-- monitor.telegram.bot.Bot -->
<g id="node2" class="node">
<title>monitor.telegram.bot.Bot</title>
<polygon fill="none" stroke="black" points="292.5,-150.5 292.5,-294.5 519.5,-294.5 519.5,-150.5 292.5,-150.5"/>
<text text-anchor="middle" x="406" y="-279.3" font-family="Times,serif" font-size="14.00">Bot</text>
<polyline fill="none" stroke="black" points="292.5,-271.5 519.5,-271.5 "/>
<text text-anchor="start" x="300.5" y="-256.3" font-family="Times,serif" font-size="14.00">chat_id : str</text>
<text text-anchor="start" x="300.5" y="-241.3" font-family="Times,serif" font-size="14.00">name_cliente : str</text>
<text text-anchor="start" x="300.5" y="-226.3" font-family="Times,serif" font-size="14.00">task : Thread</text>
<polyline fill="none" stroke="black" points="292.5,-218.5 519.5,-218.5 "/>
<text text-anchor="start" x="300.5" y="-203.3" font-family="Times,serif" font-size="14.00">add_new_cliente()</text>
<text text-anchor="start" x="300.5" y="-188.3" font-family="Times,serif" font-size="14.00">del_cliente_file(name_cliente)</text>
<text text-anchor="start" x="300.5" y="-173.3" font-family="Times,serif" font-size="14.00">load_data_cliente(name_file)</text>
<text text-anchor="start" x="300.5" y="-158.3" font-family="Times,serif" font-size="14.00">teste_msg(name_file)</text>
</g>
<!-- monitor.controller.Controller -->
<g id="node3" class="node">
<title>monitor.controller.Controller</title>
<polygon fill="none" stroke="black" points="529.5,-496.5 529.5,-700.5 862.5,-700.5 862.5,-496.5 529.5,-496.5"/>
<text text-anchor="middle" x="696" y="-685.3" font-family="Times,serif" font-size="14.00">Controller</text>
<polyline fill="none" stroke="black" points="529.5,-677.5 862.5,-677.5 "/>
<text text-anchor="start" x="537.5" y="-662.3" font-family="Times,serif" font-size="14.00">label</text>
<text text-anchor="start" x="537.5" y="-647.3" font-family="Times,serif" font-size="14.00">ui</text>
<polyline fill="none" stroke="black" points="529.5,-639.5 862.5,-639.5 "/>
<text text-anchor="start" x="537.5" y="-624.3" font-family="Times,serif" font-size="14.00">add_cam_view(name_cam)</text>
<text text-anchor="start" x="537.5" y="-609.3" font-family="Times,serif" font-size="14.00">on_comboBox_cam_setCurrentIndex(index)</text>
<text text-anchor="start" x="537.5" y="-594.3" font-family="Times,serif" font-size="14.00">on_pushButton_add_clicked()</text>
<text text-anchor="start" x="537.5" y="-579.3" font-family="Times,serif" font-size="14.00">on_pushButton_add_user_telegram_clicked()</text>
<text text-anchor="start" x="537.5" y="-564.3" font-family="Times,serif" font-size="14.00">on_pushButton_del_clicked()</text>
<text text-anchor="start" x="537.5" y="-549.3" font-family="Times,serif" font-size="14.00">on_pushButton_del_user_telegram_clicked()</text>
<text text-anchor="start" x="537.5" y="-534.3" font-family="Times,serif" font-size="14.00">on_pushButton_teste_msg_client_clicked()</text>
<text text-anchor="start" x="537.5" y="-519.3" font-family="Times,serif" font-size="14.00">restore_data()</text>
<text text-anchor="start" x="537.5" y="-504.3" font-family="Times,serif" font-size="14.00">update_combo_cliente()</text>
</g>
<!-- monitor.data_base.base.DataBase -->
<g id="node4" class="node">
<title>monitor.data_base.base.DataBase</title>
<polygon fill="none" stroke="black" points="935,-143 935,-302 1209,-302 1209,-143 935,-143"/>
<text text-anchor="middle" x="1072" y="-286.8" font-family="Times,serif" font-size="14.00">DataBase</text>
<polyline fill="none" stroke="black" points="935,-279 1209,-279 "/>
<text text-anchor="start" x="943" y="-263.8" font-family="Times,serif" font-size="14.00">current_data : dict</text>
<text text-anchor="start" x="943" y="-248.8" font-family="Times,serif" font-size="14.00">dir_base : str</text>
<text text-anchor="start" x="943" y="-233.8" font-family="Times,serif" font-size="14.00">log : NoneType, Logger, RootLogger</text>
<text text-anchor="start" x="943" y="-218.8" font-family="Times,serif" font-size="14.00">path_file_config</text>
<polyline fill="none" stroke="black" points="935,-211 1209,-211 "/>
<text text-anchor="start" x="943" y="-195.8" font-family="Times,serif" font-size="14.00">get_rstp_link()</text>
<text text-anchor="start" x="943" y="-180.8" font-family="Times,serif" font-size="14.00">read_data()</text>
<text text-anchor="start" x="943" y="-165.8" font-family="Times,serif" font-size="14.00">set_rstp_link(rstp: str)</text>
<text text-anchor="start" x="943" y="-150.8" font-family="Times,serif" font-size="14.00">write_data()</text>
</g>
<!-- monitor.telegram.client.FileConfig -->
<g id="node5" class="node">
<title>monitor.telegram.client.FileConfig</title>
<polygon fill="none" stroke="black" points="1227,-135.5 1227,-309.5 1501,-309.5 1501,-135.5 1227,-135.5"/>
<text text-anchor="middle" x="1364" y="-294.3" font-family="Times,serif" font-size="14.00">FileConfig</text>
<polyline fill="none" stroke="black" points="1227,-286.5 1501,-286.5 "/>
<text text-anchor="start" x="1235" y="-271.3" font-family="Times,serif" font-size="14.00">current_data : dict</text>
<text text-anchor="start" x="1235" y="-256.3" font-family="Times,serif" font-size="14.00">dir_base</text>
<text text-anchor="start" x="1235" y="-241.3" font-family="Times,serif" font-size="14.00">log : NoneType, RootLogger, Logger</text>
<text text-anchor="start" x="1235" y="-226.3" font-family="Times,serif" font-size="14.00">path_file_config</text>
<polyline fill="none" stroke="black" points="1227,-218.5 1501,-218.5 "/>
<text text-anchor="start" x="1235" y="-203.3" font-family="Times,serif" font-size="14.00">del_file()</text>
<text text-anchor="start" x="1235" y="-188.3" font-family="Times,serif" font-size="14.00">get_id_user()</text>
<text text-anchor="start" x="1235" y="-173.3" font-family="Times,serif" font-size="14.00">read_data()</text>
<text text-anchor="start" x="1235" y="-158.3" font-family="Times,serif" font-size="14.00">set_id_user(id_user)</text>
<text text-anchor="start" x="1235" y="-143.3" font-family="Times,serif" font-size="14.00">write_data()</text>
</g>
<!-- monitor.controller.MyLabel -->
<g id="node6" class="node">
<title>monitor.controller.MyLabel</title>
<polygon fill="none" stroke="black" points="537.5,-187.5 537.5,-257.5 656.5,-257.5 656.5,-187.5 537.5,-187.5"/>
<text text-anchor="middle" x="597" y="-242.3" font-family="Times,serif" font-size="14.00">MyLabel</text>
<polyline fill="none" stroke="black" points="537.5,-234.5 656.5,-234.5 "/>
<polyline fill="none" stroke="black" points="537.5,-210.5 656.5,-210.5 "/>
<text text-anchor="start" x="545.5" y="-195.3" font-family="Times,serif" font-size="14.00">set_label(text)</text>
</g>
<!-- monitor.controller.MyLabel&#45;&gt;monitor.controller.Controller -->
<g id="edge1" class="edge">
<title>monitor.controller.MyLabel&#45;&gt;monitor.controller.Controller</title>
<path fill="none" stroke="black" d="M606.05,-257.68C619.53,-308.62 645.52,-406.8 666.11,-484.58"/>
<polygon fill="black" stroke="black" points="666.17,-484.79 671.57,-489.57 669.24,-496.39 663.83,-491.61 666.17,-484.79"/>
<text text-anchor="middle" x="681.5" y="-466.8" font-family="Times,serif" font-size="14.00" fill="green">label</text>
</g>
<!-- monitor.view.from_ui.Ui_MainWindow -->
<g id="node7" class="node">
<title>monitor.view.from_ui.Ui_MainWindow</title>
<polygon fill="none" stroke="black" points="675,-0.5 675,-444.5 917,-444.5 917,-0.5 675,-0.5"/>
<text text-anchor="middle" x="796" y="-429.3" font-family="Times,serif" font-size="14.00">Ui_MainWindow</text>
<polyline fill="none" stroke="black" points="675,-421.5 917,-421.5 "/>
<text text-anchor="start" x="683" y="-406.3" font-family="Times,serif" font-size="14.00">centralwidget</text>
<text text-anchor="start" x="683" y="-391.3" font-family="Times,serif" font-size="14.00">comboBox_cam</text>
<text text-anchor="start" x="683" y="-376.3" font-family="Times,serif" font-size="14.00">comboBox_name_cliente</text>
<text text-anchor="start" x="683" y="-361.3" font-family="Times,serif" font-size="14.00">gridLayout</text>
<text text-anchor="start" x="683" y="-346.3" font-family="Times,serif" font-size="14.00">gridLayout_2</text>
<text text-anchor="start" x="683" y="-331.3" font-family="Times,serif" font-size="14.00">gridLayout_3</text>
<text text-anchor="start" x="683" y="-316.3" font-family="Times,serif" font-size="14.00">gridLayout_4</text>
<text text-anchor="start" x="683" y="-301.3" font-family="Times,serif" font-size="14.00">horizontalSpacer</text>
<text text-anchor="start" x="683" y="-286.3" font-family="Times,serif" font-size="14.00">label</text>
<text text-anchor="start" x="683" y="-271.3" font-family="Times,serif" font-size="14.00">label_2</text>
<text text-anchor="start" x="683" y="-256.3" font-family="Times,serif" font-size="14.00">label_3</text>
<text text-anchor="start" x="683" y="-241.3" font-family="Times,serif" font-size="14.00">label_4</text>
<text text-anchor="start" x="683" y="-226.3" font-family="Times,serif" font-size="14.00">label_5</text>
<text text-anchor="start" x="683" y="-211.3" font-family="Times,serif" font-size="14.00">label_6</text>
<text text-anchor="start" x="683" y="-196.3" font-family="Times,serif" font-size="14.00">lineEdit_rstp</text>
<text text-anchor="start" x="683" y="-181.3" font-family="Times,serif" font-size="14.00">menubar</text>
<text text-anchor="start" x="683" y="-166.3" font-family="Times,serif" font-size="14.00">pushButton_add</text>
<text text-anchor="start" x="683" y="-151.3" font-family="Times,serif" font-size="14.00">pushButton_add_user_telegram</text>
<text text-anchor="start" x="683" y="-136.3" font-family="Times,serif" font-size="14.00">pushButton_del</text>
<text text-anchor="start" x="683" y="-121.3" font-family="Times,serif" font-size="14.00">pushButton_del_user_telegram</text>
<text text-anchor="start" x="683" y="-106.3" font-family="Times,serif" font-size="14.00">pushButton_teste_msg_client</text>
<text text-anchor="start" x="683" y="-91.3" font-family="Times,serif" font-size="14.00">scrollArea</text>
<text text-anchor="start" x="683" y="-76.3" font-family="Times,serif" font-size="14.00">scrollAreaWidgetContents</text>
<text text-anchor="start" x="683" y="-61.3" font-family="Times,serif" font-size="14.00">statusbar</text>
<text text-anchor="start" x="683" y="-46.3" font-family="Times,serif" font-size="14.00">verticalLayout</text>
<polyline fill="none" stroke="black" points="675,-38.5 917,-38.5 "/>
<text text-anchor="start" x="683" y="-23.3" font-family="Times,serif" font-size="14.00">retranslateUi(MainWindow)</text>
<text text-anchor="start" x="683" y="-8.3" font-family="Times,serif" font-size="14.00">setupUi(MainWindow)</text>
</g>
<!-- monitor.view.from_ui.Ui_MainWindow&#45;&gt;monitor.controller.Controller -->
<g id="edge2" class="edge">
<title>monitor.view.from_ui.Ui_MainWindow&#45;&gt;monitor.controller.Controller</title>
<path fill="none" stroke="black" d="M736.89,-444.57C733.24,-458.23 729.65,-471.65 726.21,-484.5"/>
<polygon fill="black" stroke="black" points="726.2,-484.55 728.51,-491.38 723.1,-496.15 720.79,-489.32 726.2,-484.55"/>
<text text-anchor="middle" x="739" y="-466.8" font-family="Times,serif" font-size="14.00" fill="green">ui</text>
</g>
</g>
</svg>
