<?xml version="1.0" encoding="UTF-8" standalone="no"?>
<!DOCTYPE svg PUBLIC "-//W3C//DTD SVG 1.1//EN"
 "http://www.w3.org/Graphics/SVG/1.1/DTD/svg11.dtd">
<!-- Generated by graphviz version 2.43.0 (0)
 -->
<!-- Title: packages Pages: 1 -->
<svg width="683pt" height="188pt"
 viewBox="0.00 0.00 682.50 188.00" xmlns="http://www.w3.org/2000/svg" xmlns:xlink="http://www.w3.org/1999/xlink">
<g id="graph0" class="graph" transform="scale(1 1) rotate(0) translate(4 184)">
<title>packages</title>
<polygon fill="white" stroke="transparent" points="-4,4 -4,-184 678.5,-184 678.5,4 -4,4"/>
<!-- monitor -->
<g id="node1" class="node">
<title>monitor</title>
<polygon fill="none" stroke="black" points="132,-36 59,-36 59,0 132,0 132,-36"/>
<text text-anchor="middle" x="95.5" y="-14.3" font-family="Times,serif" font-size="14.00">monitor</text>
</g>
<!-- monitor.controller -->
<g id="node2" class="node">
<title>monitor.controller</title>
<polygon fill="none" stroke="black" points="296.5,-36 150.5,-36 150.5,0 296.5,0 296.5,-36"/>
<text text-anchor="middle" x="223.5" y="-14.3" font-family="Times,serif" font-size="14.00">monitor.controller</text>
</g>
<!-- monitor.data_base -->
<g id="node3" class="node">
<title>monitor.data_base</title>
<polygon fill="none" stroke="black" points="147,-108 0,-108 0,-72 147,-72 147,-108"/>
<text text-anchor="middle" x="73.5" y="-86.3" font-family="Times,serif" font-size="14.00">monitor.data_base</text>
</g>
<!-- monitor.controller&#45;&gt;monitor.data_base -->
<g id="edge1" class="edge">
<title>monitor.controller&#45;&gt;monitor.data_base</title>
<path fill="none" stroke="black" d="M186.81,-36.12C166.48,-45.61 141.03,-57.49 119.4,-67.58"/>
<polygon fill="black" stroke="black" points="110.07,-71.93 117.23,-63.62 114.61,-69.82 119.14,-67.7 119.14,-67.7 119.14,-67.7 114.61,-69.82 121.04,-71.78 110.07,-71.93 110.07,-71.93"/>
</g>
<!-- monitor.setup -->
<g id="node6" class="node">
<title>monitor.setup</title>
<polygon fill="none" stroke="black" points="281.5,-108 165.5,-108 165.5,-72 281.5,-72 281.5,-108"/>
<text text-anchor="middle" x="223.5" y="-86.3" font-family="Times,serif" font-size="14.00">monitor.setup</text>
</g>
<!-- monitor.controller&#45;&gt;monitor.setup -->
<g id="edge2" class="edge">
<title>monitor.controller&#45;&gt;monitor.setup</title>
<path fill="none" stroke="black" d="M223.5,-36.3C223.5,-44.02 223.5,-53.29 223.5,-61.89"/>
<polygon fill="black" stroke="black" points="223.5,-71.9 219,-61.9 223.5,-66.9 223.5,-61.9 223.5,-61.9 223.5,-61.9 223.5,-66.9 228,-61.9 223.5,-71.9 223.5,-71.9"/>
</g>
<!-- monitor.view -->
<g id="node7" class="node">
<title>monitor.view</title>
<polygon fill="none" stroke="black" points="646,-108 537,-108 537,-72 646,-72 646,-108"/>
<text text-anchor="middle" x="591.5" y="-86.3" font-family="Times,serif" font-size="14.00">monitor.view</text>
</g>
<!-- monitor.controller&#45;&gt;monitor.view -->
<g id="edge3" class="edge">
<title>monitor.controller&#45;&gt;monitor.view</title>
<path fill="none" stroke="black" d="M296.59,-29.78C356.24,-39.01 442.88,-53.43 526.97,-71.75"/>
<polygon fill="black" stroke="black" points="536.94,-73.95 526.21,-76.2 532.06,-72.87 527.17,-71.8 527.17,-71.8 527.17,-71.8 532.06,-72.87 528.14,-67.41 536.94,-73.95 536.94,-73.95"/>
</g>
<!-- monitor.data_base.base -->
<g id="node4" class="node">
<title>monitor.data_base.base</title>
<polygon fill="none" stroke="black" points="328,-180 143,-180 143,-144 328,-144 328,-180"/>
<text text-anchor="middle" x="235.5" y="-158.3" font-family="Times,serif" font-size="14.00">monitor.data_base.base</text>
</g>
<!-- monitor.data_base&#45;&gt;monitor.data_base.base -->
<g id="edge4" class="edge">
<title>monitor.data_base&#45;&gt;monitor.data_base.base</title>
<path fill="none" stroke="black" d="M113.13,-108.12C135.28,-117.69 163.06,-129.7 186.56,-139.85"/>
<polygon fill="black" stroke="black" points="196,-143.93 185.03,-144.1 191.41,-141.95 186.82,-139.97 186.82,-139.97 186.82,-139.97 191.41,-141.95 188.6,-135.83 196,-143.93 196,-143.93"/>
</g>
<!-- monitor.data_base.base_test -->
<g id="node5" class="node">
<title>monitor.data_base.base_test</title>
<polygon fill="none" stroke="black" points="519,-108 300,-108 300,-72 519,-72 519,-108"/>
<text text-anchor="middle" x="409.5" y="-86.3" font-family="Times,serif" font-size="14.00">monitor.data_base.base_test</text>
</g>
<!-- monitor.data_base.base_test&#45;&gt;monitor.data_base.base -->
<g id="edge5" class="edge">
<title>monitor.data_base.base_test&#45;&gt;monitor.data_base.base</title>
<path fill="none" stroke="black" d="M366.93,-108.12C342.94,-117.78 312.77,-129.91 287.4,-140.12"/>
<polygon fill="black" stroke="black" points="277.93,-143.93 285.52,-136.02 282.57,-142.07 287.2,-140.2 287.2,-140.2 287.2,-140.2 282.57,-142.07 288.88,-144.37 277.93,-143.93 277.93,-143.93"/>
</g>
<!-- monitor.view.from_ui -->
<g id="node8" class="node">
<title>monitor.view.from_ui</title>
<polygon fill="none" stroke="black" points="674.5,-180 508.5,-180 508.5,-144 674.5,-144 674.5,-180"/>
<text text-anchor="middle" x="591.5" y="-158.3" font-family="Times,serif" font-size="14.00">monitor.view.from_ui</text>
</g>
<!-- monitor.view&#45;&gt;monitor.view.from_ui -->
<g id="edge6" class="edge">
<title>monitor.view&#45;&gt;monitor.view.from_ui</title>
<path fill="none" stroke="black" d="M591.5,-108.3C591.5,-116.02 591.5,-125.29 591.5,-133.89"/>
<polygon fill="black" stroke="black" points="591.5,-143.9 587,-133.9 591.5,-138.9 591.5,-133.9 591.5,-133.9 591.5,-133.9 591.5,-138.9 596,-133.9 591.5,-143.9 591.5,-143.9"/>
</g>
</g>
</svg>
