<?xml version="1.0" encoding="UTF-8" standalone="no"?>
<!DOCTYPE svg PUBLIC "-//W3C//DTD SVG 1.1//EN"
 "http://www.w3.org/Graphics/SVG/1.1/DTD/svg11.dtd">
<!-- Generated by graphviz version 2.43.0 (0)
 -->
<!-- Title: packages Pages: 1 -->
<svg width="1066pt" height="260pt"
 viewBox="0.00 0.00 1065.50 260.00" xmlns="http://www.w3.org/2000/svg" xmlns:xlink="http://www.w3.org/1999/xlink">
<g id="graph0" class="graph" transform="scale(1 1) rotate(0) translate(4 256)">
<title>packages</title>
<polygon fill="white" stroke="transparent" points="-4,4 -4,-256 1061.5,-256 1061.5,4 -4,4"/>
<!-- monitor -->
<g id="node1" class="node">
<title>monitor</title>
<polygon fill="none" stroke="black" points="278.5,-36 205.5,-36 205.5,0 278.5,0 278.5,-36"/>
<text text-anchor="middle" x="242" y="-14.3" font-family="Times,serif" font-size="14.00">monitor</text>
</g>
<!-- monitor.controller -->
<g id="node2" class="node">
<title>monitor.controller</title>
<polygon fill="none" stroke="black" points="443,-36 297,-36 297,0 443,0 443,-36"/>
<text text-anchor="middle" x="370" y="-14.3" font-family="Times,serif" font-size="14.00">monitor.controller</text>
</g>
<!-- monitor.data_base -->
<g id="node3" class="node">
<title>monitor.data_base</title>
<polygon fill="none" stroke="black" points="969.5,-108 822.5,-108 822.5,-72 969.5,-72 969.5,-108"/>
<text text-anchor="middle" x="896" y="-86.3" font-family="Times,serif" font-size="14.00">monitor.data_base</text>
</g>
<!-- monitor.controller&#45;&gt;monitor.data_base -->
<g id="edge1" class="edge">
<title>monitor.controller&#45;&gt;monitor.data_base</title>
<path fill="none" stroke="black" d="M443.34,-25.81C529.44,-34.25 676.72,-50.03 812.15,-71.77"/>
<polygon fill="black" stroke="black" points="822.3,-73.41 811.71,-76.25 817.36,-72.61 812.43,-71.81 812.43,-71.81 812.43,-71.81 817.36,-72.61 813.15,-67.37 822.3,-73.41 822.3,-73.41"/>
</g>
<!-- monitor.process -->
<g id="node6" class="node">
<title>monitor.process</title>
<polygon fill="none" stroke="black" points="147.5,-108 16.5,-108 16.5,-72 147.5,-72 147.5,-108"/>
<text text-anchor="middle" x="82" y="-86.3" font-family="Times,serif" font-size="14.00">monitor.process</text>
</g>
<!-- monitor.controller&#45;&gt;monitor.process -->
<g id="edge2" class="edge">
<title>monitor.controller&#45;&gt;monitor.process</title>
<path fill="none" stroke="black" d="M299.92,-36.03C256.88,-46.49 201.77,-59.89 157.73,-70.59"/>
<polygon fill="black" stroke="black" points="147.94,-72.97 156.6,-66.24 152.8,-71.79 157.66,-70.61 157.66,-70.61 157.66,-70.61 152.8,-71.79 158.72,-74.98 147.94,-72.97 147.94,-72.97"/>
</g>
<!-- monitor.setup -->
<g id="node8" class="node">
<title>monitor.setup</title>
<polygon fill="none" stroke="black" points="282,-108 166,-108 166,-72 282,-72 282,-108"/>
<text text-anchor="middle" x="224" y="-86.3" font-family="Times,serif" font-size="14.00">monitor.setup</text>
</g>
<!-- monitor.controller&#45;&gt;monitor.setup -->
<g id="edge3" class="edge">
<title>monitor.controller&#45;&gt;monitor.setup</title>
<path fill="none" stroke="black" d="M334.28,-36.12C314.5,-45.61 289.73,-57.49 268.67,-67.58"/>
<polygon fill="black" stroke="black" points="259.6,-71.93 266.67,-63.55 264.11,-69.77 268.62,-67.61 268.62,-67.61 268.62,-67.61 264.11,-69.77 270.56,-71.67 259.6,-71.93 259.6,-71.93"/>
</g>
<!-- monitor.telegram -->
<g id="node9" class="node">
<title>monitor.telegram</title>
<polygon fill="none" stroke="black" points="440,-108 300,-108 300,-72 440,-72 440,-108"/>
<text text-anchor="middle" x="370" y="-86.3" font-family="Times,serif" font-size="14.00">monitor.telegram</text>
</g>
<!-- monitor.controller&#45;&gt;monitor.telegram -->
<g id="edge4" class="edge">
<title>monitor.controller&#45;&gt;monitor.telegram</title>
<path fill="none" stroke="black" d="M370,-36.3C370,-44.02 370,-53.29 370,-61.89"/>
<polygon fill="black" stroke="black" points="370,-71.9 365.5,-61.9 370,-66.9 370,-61.9 370,-61.9 370,-61.9 370,-66.9 374.5,-61.9 370,-71.9 370,-71.9"/>
</g>
<!-- monitor.view -->
<g id="node14" class="node">
<title>monitor.view</title>
<polygon fill="none" stroke="black" points="567.5,-108 458.5,-108 458.5,-72 567.5,-72 567.5,-108"/>
<text text-anchor="middle" x="513" y="-86.3" font-family="Times,serif" font-size="14.00">monitor.view</text>
</g>
<!-- monitor.controller&#45;&gt;monitor.view -->
<g id="edge5" class="edge">
<title>monitor.controller&#45;&gt;monitor.view</title>
<path fill="none" stroke="black" d="M404.98,-36.12C424.2,-45.53 448.23,-57.29 468.74,-67.33"/>
<polygon fill="black" stroke="black" points="477.88,-71.81 466.92,-71.46 473.39,-69.61 468.9,-67.41 468.9,-67.41 468.9,-67.41 473.39,-69.61 470.88,-63.37 477.88,-71.81 477.88,-71.81"/>
</g>
<!-- monitor.data_base.base -->
<g id="node4" class="node">
<title>monitor.data_base.base</title>
<polygon fill="none" stroke="black" points="820.5,-180 635.5,-180 635.5,-144 820.5,-144 820.5,-180"/>
<text text-anchor="middle" x="728" y="-158.3" font-family="Times,serif" font-size="14.00">monitor.data_base.base</text>
</g>
<!-- monitor.data_base&#45;&gt;monitor.data_base.base -->
<g id="edge6" class="edge">
<title>monitor.data_base&#45;&gt;monitor.data_base.base</title>
<path fill="none" stroke="black" d="M854.9,-108.12C831.83,-117.74 802.86,-129.81 778.43,-139.99"/>
<polygon fill="black" stroke="black" points="768.96,-143.93 776.46,-135.93 773.58,-142.01 778.19,-140.09 778.19,-140.09 778.19,-140.09 773.58,-142.01 779.93,-144.24 768.96,-143.93 768.96,-143.93"/>
</g>
<!-- monitor.data_base.base_test -->
<g id="node5" class="node">
<title>monitor.data_base.base_test</title>
<polygon fill="none" stroke="black" points="804.5,-108 585.5,-108 585.5,-72 804.5,-72 804.5,-108"/>
<text text-anchor="middle" x="695" y="-86.3" font-family="Times,serif" font-size="14.00">monitor.data_base.base_test</text>
</g>
<!-- monitor.data_base.base_test&#45;&gt;monitor.data_base.base -->
<g id="edge7" class="edge">
<title>monitor.data_base.base_test&#45;&gt;monitor.data_base.base</title>
<path fill="none" stroke="black" d="M703.16,-108.3C706.91,-116.27 711.45,-125.9 715.62,-134.74"/>
<polygon fill="black" stroke="black" points="719.94,-143.9 711.6,-136.77 717.8,-139.37 715.67,-134.85 715.67,-134.85 715.67,-134.85 717.8,-139.37 719.74,-132.93 719.94,-143.9 719.94,-143.9"/>
</g>
<!-- monitor.process.cam -->
<g id="node7" class="node">
<title>monitor.process.cam</title>
<polygon fill="none" stroke="black" points="164,-180 0,-180 0,-144 164,-144 164,-180"/>
<text text-anchor="middle" x="82" y="-158.3" font-family="Times,serif" font-size="14.00">monitor.process.cam</text>
</g>
<!-- monitor.process&#45;&gt;monitor.process.cam -->
<g id="edge8" class="edge">
<title>monitor.process&#45;&gt;monitor.process.cam</title>
<path fill="none" stroke="black" d="M82,-108.3C82,-116.02 82,-125.29 82,-133.89"/>
<polygon fill="black" stroke="black" points="82,-143.9 77.5,-133.9 82,-138.9 82,-133.9 82,-133.9 82,-133.9 82,-138.9 86.5,-133.9 82,-143.9 82,-143.9"/>
</g>
<!-- monitor.telegram.bot -->
<g id="node11" class="node">
<title>monitor.telegram.bot</title>
<polygon fill="none" stroke="black" points="433,-180 265,-180 265,-144 433,-144 433,-180"/>
<text text-anchor="middle" x="349" y="-158.3" font-family="Times,serif" font-size="14.00">monitor.telegram.bot</text>
</g>
<!-- monitor.telegram&#45;&gt;monitor.telegram.bot -->
<g id="edge9" class="edge">
<title>monitor.telegram&#45;&gt;monitor.telegram.bot</title>
<path fill="none" stroke="black" d="M364.81,-108.3C362.47,-116.1 359.65,-125.49 357.05,-134.17"/>
<polygon fill="black" stroke="black" points="354.13,-143.9 352.69,-133.02 355.57,-139.11 357,-134.32 357,-134.32 357,-134.32 355.57,-139.11 361.32,-135.61 354.13,-143.9 354.13,-143.9"/>
</g>
<!-- monitor.telegram.api -->
<g id="node10" class="node">
<title>monitor.telegram.api</title>
<polygon fill="none" stroke="black" points="432.5,-252 265.5,-252 265.5,-216 432.5,-216 432.5,-252"/>
<text text-anchor="middle" x="349" y="-230.3" font-family="Times,serif" font-size="14.00">monitor.telegram.api</text>
</g>
<!-- monitor.telegram.bot&#45;&gt;monitor.telegram.api -->
<g id="edge10" class="edge">
<title>monitor.telegram.bot&#45;&gt;monitor.telegram.api</title>
<path fill="none" stroke="black" d="M349,-180.3C349,-188.02 349,-197.29 349,-205.89"/>
<polygon fill="black" stroke="black" points="349,-215.9 344.5,-205.9 349,-210.9 349,-205.9 349,-205.9 349,-205.9 349,-210.9 353.5,-205.9 349,-215.9 349,-215.9"/>
</g>
<!-- monitor.telegram.client -->
<g id="node12" class="node">
<title>monitor.telegram.client</title>
<polygon fill="none" stroke="black" points="837.5,-252 652.5,-252 652.5,-216 837.5,-216 837.5,-252"/>
<text text-anchor="middle" x="745" y="-230.3" font-family="Times,serif" font-size="14.00">monitor.telegram.client</text>
</g>
<!-- monitor.telegram.bot&#45;&gt;monitor.telegram.client -->
<g id="edge11" class="edge">
<title>monitor.telegram.bot&#45;&gt;monitor.telegram.client</title>
<path fill="none" stroke="black" d="M433.14,-178.41C436.13,-178.95 439.09,-179.48 442,-180 508.71,-191.93 583.75,-205.06 642.45,-215.26"/>
<polygon fill="black" stroke="black" points="652.47,-217 641.85,-219.73 647.55,-216.15 642.62,-215.29 642.62,-215.29 642.62,-215.29 647.55,-216.15 643.39,-210.86 652.47,-217 652.47,-217"/>
</g>
<!-- monitor.telegram.client_test -->
<g id="node13" class="node">
<title>monitor.telegram.client_test</title>
<polygon fill="none" stroke="black" points="1057.5,-180 838.5,-180 838.5,-144 1057.5,-144 1057.5,-180"/>
<text text-anchor="middle" x="948" y="-158.3" font-family="Times,serif" font-size="14.00">monitor.telegram.client_test</text>
</g>
<!-- monitor.telegram.client_test&#45;&gt;monitor.telegram.client -->
<g id="edge12" class="edge">
<title>monitor.telegram.client_test&#45;&gt;monitor.telegram.client</title>
<path fill="none" stroke="black" d="M898.6,-180.03C870.11,-189.86 834.11,-202.27 804.13,-212.61"/>
<polygon fill="black" stroke="black" points="794.62,-215.89 802.61,-208.38 799.35,-214.26 804.08,-212.63 804.08,-212.63 804.08,-212.63 799.35,-214.26 805.54,-216.88 794.62,-215.89 794.62,-215.89"/>
</g>
<!-- monitor.view.from_ui -->
<g id="node15" class="node">
<title>monitor.view.from_ui</title>
<polygon fill="none" stroke="black" points="617,-180 451,-180 451,-144 617,-144 617,-180"/>
<text text-anchor="middle" x="534" y="-158.3" font-family="Times,serif" font-size="14.00">monitor.view.from_ui</text>
</g>
<!-- monitor.view&#45;&gt;monitor.view.from_ui -->
<g id="edge13" class="edge">
<title>monitor.view&#45;&gt;monitor.view.from_ui</title>
<path fill="none" stroke="black" d="M518.19,-108.3C520.53,-116.1 523.35,-125.49 525.95,-134.17"/>
<polygon fill="black" stroke="black" points="528.87,-143.9 521.68,-135.61 527.43,-139.11 526,-134.32 526,-134.32 526,-134.32 527.43,-139.11 530.31,-133.02 528.87,-143.9 528.87,-143.9"/>
</g>
</g>
</svg>
