<?xml version="1.0" encoding="UTF-8" standalone="no"?>
<!DOCTYPE svg PUBLIC "-//W3C//DTD SVG 1.1//EN"
 "http://www.w3.org/Graphics/SVG/1.1/DTD/svg11.dtd">
<!-- Generated by graphviz version 2.43.0 (0)
 -->
<!-- Title: packages Pages: 1 -->
<svg width="1109pt" height="260pt"
 viewBox="0.00 0.00 1109.00 260.00" xmlns="http://www.w3.org/2000/svg" xmlns:xlink="http://www.w3.org/1999/xlink">
<g id="graph0" class="graph" transform="scale(1 1) rotate(0) translate(4 256)">
<title>packages</title>
<polygon fill="white" stroke="transparent" points="-4,4 -4,-256 1105,-256 1105,4 -4,4"/>
<!-- monitor -->
<g id="node1" class="node">
<title>monitor</title>
<polygon fill="none" stroke="black" points="324,-36 251,-36 251,0 324,0 324,-36"/>
<text text-anchor="middle" x="287.5" y="-14.3" font-family="Times,serif" font-size="14.00">monitor</text>
</g>
<!-- monitor.controller -->
<g id="node2" class="node">
<title>monitor.controller</title>
<polygon fill="none" stroke="black" points="488.5,-36 342.5,-36 342.5,0 488.5,0 488.5,-36"/>
<text text-anchor="middle" x="415.5" y="-14.3" font-family="Times,serif" font-size="14.00">monitor.controller</text>
</g>
<!-- monitor.data_base -->
<g id="node3" class="node">
<title>monitor.data_base</title>
<polygon fill="none" stroke="black" points="147,-108 0,-108 0,-72 147,-72 147,-108"/>
<text text-anchor="middle" x="73.5" y="-86.3" font-family="Times,serif" font-size="14.00">monitor.data_base</text>
</g>
<!-- monitor.controller&#45;&gt;monitor.data_base -->
<g id="edge1" class="edge">
<title>monitor.controller&#45;&gt;monitor.data_base</title>
<path fill="none" stroke="black" d="M342.18,-34.02C338.91,-34.69 335.67,-35.35 332.5,-36 257.34,-51.38 236.34,-55.66 157.21,-71.85"/>
<polygon fill="black" stroke="black" points="147.27,-73.89 156.16,-67.48 152.16,-72.89 157.06,-71.88 157.06,-71.88 157.06,-71.88 152.16,-72.89 157.97,-76.29 147.27,-73.89 147.27,-73.89"/>
</g>
<!-- monitor.setup -->
<g id="node6" class="node">
<title>monitor.setup</title>
<polygon fill="none" stroke="black" points="281.5,-108 165.5,-108 165.5,-72 281.5,-72 281.5,-108"/>
<text text-anchor="middle" x="223.5" y="-86.3" font-family="Times,serif" font-size="14.00">monitor.setup</text>
</g>
<!-- monitor.controller&#45;&gt;monitor.setup -->
<g id="edge2" class="edge">
<title>monitor.controller&#45;&gt;monitor.setup</title>
<path fill="none" stroke="black" d="M368.53,-36.12C341.82,-45.86 308.18,-58.13 280.03,-68.39"/>
<polygon fill="black" stroke="black" points="270.32,-71.93 278.17,-64.28 275.01,-70.22 279.71,-68.51 279.71,-68.51 279.71,-68.51 275.01,-70.22 281.25,-72.73 270.32,-71.93 270.32,-71.93"/>
</g>
<!-- monitor.telegram -->
<g id="node7" class="node">
<title>monitor.telegram</title>
<polygon fill="none" stroke="black" points="677.5,-108 537.5,-108 537.5,-72 677.5,-72 677.5,-108"/>
<text text-anchor="middle" x="607.5" y="-86.3" font-family="Times,serif" font-size="14.00">monitor.telegram</text>
</g>
<!-- monitor.controller&#45;&gt;monitor.telegram -->
<g id="edge3" class="edge">
<title>monitor.controller&#45;&gt;monitor.telegram</title>
<path fill="none" stroke="black" d="M462.47,-36.12C489.18,-45.86 522.82,-58.13 550.97,-68.39"/>
<polygon fill="black" stroke="black" points="560.68,-71.93 549.75,-72.73 555.99,-70.22 551.29,-68.51 551.29,-68.51 551.29,-68.51 555.99,-70.22 552.83,-64.28 560.68,-71.93 560.68,-71.93"/>
</g>
<!-- monitor.view -->
<g id="node12" class="node">
<title>monitor.view</title>
<polygon fill="none" stroke="black" points="824,-108 715,-108 715,-72 824,-72 824,-108"/>
<text text-anchor="middle" x="769.5" y="-86.3" font-family="Times,serif" font-size="14.00">monitor.view</text>
</g>
<!-- monitor.controller&#45;&gt;monitor.view -->
<g id="edge4" class="edge">
<title>monitor.controller&#45;&gt;monitor.view</title>
<path fill="none" stroke="black" d="M488.57,-33.11C543.13,-43.69 619.51,-58.59 686.5,-72 692.32,-73.17 698.37,-74.39 704.43,-75.61"/>
<polygon fill="black" stroke="black" points="714.6,-77.68 703.9,-80.1 709.7,-76.69 704.8,-75.69 704.8,-75.69 704.8,-75.69 709.7,-76.69 705.7,-71.28 714.6,-77.68 714.6,-77.68"/>
</g>
<!-- monitor.data_base.base -->
<g id="node4" class="node">
<title>monitor.data_base.base</title>
<polygon fill="none" stroke="black" points="336,-180 151,-180 151,-144 336,-144 336,-180"/>
<text text-anchor="middle" x="243.5" y="-158.3" font-family="Times,serif" font-size="14.00">monitor.data_base.base</text>
</g>
<!-- monitor.data_base&#45;&gt;monitor.data_base.base -->
<g id="edge5" class="edge">
<title>monitor.data_base&#45;&gt;monitor.data_base.base</title>
<path fill="none" stroke="black" d="M115.09,-108.12C138.53,-117.78 168,-129.91 192.8,-140.12"/>
<polygon fill="black" stroke="black" points="202.05,-143.93 191.09,-144.29 197.42,-142.03 192.8,-140.12 192.8,-140.12 192.8,-140.12 197.42,-142.03 194.51,-135.96 202.05,-143.93 202.05,-143.93"/>
</g>
<!-- monitor.data_base.base_test -->
<g id="node5" class="node">
<title>monitor.data_base.base_test</title>
<polygon fill="none" stroke="black" points="519,-108 300,-108 300,-72 519,-72 519,-108"/>
<text text-anchor="middle" x="409.5" y="-86.3" font-family="Times,serif" font-size="14.00">monitor.data_base.base_test</text>
</g>
<!-- monitor.data_base.base_test&#45;&gt;monitor.data_base.base -->
<g id="edge6" class="edge">
<title>monitor.data_base.base_test&#45;&gt;monitor.data_base.base</title>
<path fill="none" stroke="black" d="M368.89,-108.12C346.1,-117.74 317.47,-129.81 293.33,-139.99"/>
<polygon fill="black" stroke="black" points="283.98,-143.93 291.44,-135.9 288.58,-141.99 293.19,-140.05 293.19,-140.05 293.19,-140.05 288.58,-141.99 294.94,-144.19 283.98,-143.93 283.98,-143.93"/>
</g>
<!-- monitor.telegram.bot -->
<g id="node9" class="node">
<title>monitor.telegram.bot</title>
<polygon fill="none" stroke="black" points="679.5,-180 511.5,-180 511.5,-144 679.5,-144 679.5,-180"/>
<text text-anchor="middle" x="595.5" y="-158.3" font-family="Times,serif" font-size="14.00">monitor.telegram.bot</text>
</g>
<!-- monitor.telegram&#45;&gt;monitor.telegram.bot -->
<g id="edge7" class="edge">
<title>monitor.telegram&#45;&gt;monitor.telegram.bot</title>
<path fill="none" stroke="black" d="M604.53,-108.3C603.21,-116.02 601.62,-125.29 600.15,-133.89"/>
<polygon fill="black" stroke="black" points="598.43,-143.9 595.69,-133.28 599.28,-138.97 600.12,-134.04 600.12,-134.04 600.12,-134.04 599.28,-138.97 604.56,-134.8 598.43,-143.9 598.43,-143.9"/>
</g>
<!-- monitor.telegram.api -->
<g id="node8" class="node">
<title>monitor.telegram.api</title>
<polygon fill="none" stroke="black" points="679,-252 512,-252 512,-216 679,-216 679,-252"/>
<text text-anchor="middle" x="595.5" y="-230.3" font-family="Times,serif" font-size="14.00">monitor.telegram.api</text>
</g>
<!-- monitor.telegram.bot&#45;&gt;monitor.telegram.api -->
<g id="edge8" class="edge">
<title>monitor.telegram.bot&#45;&gt;monitor.telegram.api</title>
<path fill="none" stroke="black" d="M595.5,-180.3C595.5,-188.02 595.5,-197.29 595.5,-205.89"/>
<polygon fill="black" stroke="black" points="595.5,-215.9 591,-205.9 595.5,-210.9 595.5,-205.9 595.5,-205.9 595.5,-205.9 595.5,-210.9 600,-205.9 595.5,-215.9 595.5,-215.9"/>
</g>
<!-- monitor.telegram.client -->
<g id="node10" class="node">
<title>monitor.telegram.client</title>
<polygon fill="none" stroke="black" points="983,-252 798,-252 798,-216 983,-216 983,-252"/>
<text text-anchor="middle" x="890.5" y="-230.3" font-family="Times,serif" font-size="14.00">monitor.telegram.client</text>
</g>
<!-- monitor.telegram.bot&#45;&gt;monitor.telegram.client -->
<g id="edge9" class="edge">
<title>monitor.telegram.bot&#45;&gt;monitor.telegram.client</title>
<path fill="none" stroke="black" d="M667.29,-180.03C710.02,-190.17 764.38,-203.07 808.76,-213.6"/>
<polygon fill="black" stroke="black" points="818.65,-215.95 807.88,-218.02 813.78,-214.8 808.92,-213.64 808.92,-213.64 808.92,-213.64 813.78,-214.8 809.96,-209.26 818.65,-215.95 818.65,-215.95"/>
</g>
<!-- monitor.telegram.client_test -->
<g id="node11" class="node">
<title>monitor.telegram.client_test</title>
<polygon fill="none" stroke="black" points="1101,-180 882,-180 882,-144 1101,-144 1101,-180"/>
<text text-anchor="middle" x="991.5" y="-158.3" font-family="Times,serif" font-size="14.00">monitor.telegram.client_test</text>
</g>
<!-- monitor.telegram.client_test&#45;&gt;monitor.telegram.client -->
<g id="edge10" class="edge">
<title>monitor.telegram.client_test&#45;&gt;monitor.telegram.client</title>
<path fill="none" stroke="black" d="M966.79,-180.12C953.83,-189.11 937.77,-200.24 923.73,-209.97"/>
<polygon fill="black" stroke="black" points="915.3,-215.81 920.96,-206.42 919.41,-212.96 923.52,-210.11 923.52,-210.11 923.52,-210.11 919.41,-212.96 926.08,-213.81 915.3,-215.81 915.3,-215.81"/>
</g>
<!-- monitor.view.from_ui -->
<g id="node13" class="node">
<title>monitor.view.from_ui</title>
<polygon fill="none" stroke="black" points="863.5,-180 697.5,-180 697.5,-144 863.5,-144 863.5,-180"/>
<text text-anchor="middle" x="780.5" y="-158.3" font-family="Times,serif" font-size="14.00">monitor.view.from_ui</text>
</g>
<!-- monitor.view&#45;&gt;monitor.view.from_ui -->
<g id="edge11" class="edge">
<title>monitor.view&#45;&gt;monitor.view.from_ui</title>
<path fill="none" stroke="black" d="M772.22,-108.3C773.43,-116.02 774.89,-125.29 776.24,-133.89"/>
<polygon fill="black" stroke="black" points="777.81,-143.9 771.81,-134.72 777.04,-138.96 776.26,-134.02 776.26,-134.02 776.26,-134.02 777.04,-138.96 780.71,-133.32 777.81,-143.9 777.81,-143.9"/>
</g>
</g>
</svg>
